<?xml version="1.0" encoding="UTF-8" standalone="no"?>
<!DOCTYPE svg PUBLIC "-//W3C//DTD SVG 1.1//EN" "http://www.w3.org/Graphics/SVG/1.1/DTD/svg11.dtd">
<svg width="100%" height="100%" viewBox="0 0 225 176" version="1.1" xmlns="http://www.w3.org/2000/svg" xmlns:xlink="http://www.w3.org/1999/xlink" xml:space="preserve" xmlns:serif="http://www.serif.com/" style="fill-rule:evenodd;clip-rule:evenodd;stroke-linecap:round;stroke-linejoin:round;stroke-miterlimit:1.5;">
    <g transform="matrix(1,0,0,1,-966.886,-568.078)">
        <g transform="matrix(0.314348,0,0,0.314348,880.575,547.544)">
            <g transform="matrix(1,0,0,1,14.1554,-53.7868)">
                <rect x="279.329" y="138.024" width="674.89" height="521.353" style="fill:white;stroke:white;stroke-width:37.83px;"/>
                <g transform="matrix(0.944702,0.00633255,-0.00630265,0.940241,29.1766,17.7466)">
                    <path d="M279.851,139.486L834.127,136.673L281.602,657.122L279.851,139.486Z" style="fill:white;fill-rule:nonzero;stroke:white;stroke-width:40.13px;"/>
                </g>
                <g transform="matrix(-0.755595,-0.835536,0.888032,-0.803068,513.745,1458.98)">
                    <path d="M665.714,322.432C663.21,323.272 381.672,617.224 381.672,617.224L669.168,625.028C669.168,625.028 668.218,321.592 665.714,322.432Z" style="fill:white;fill-rule:nonzero;stroke:white;stroke-width:32.54px;"/>
                </g>
            </g>
        </g>
    </g>
</svg>
